<?xml version="1.0" encoding="iso-8859-1"?>
<!-- Generator: Adobe Illustrator 16.0.0, SVG Export Plug-In . SVG Version: 6.00 Build 0)  -->
<!DOCTYPE svg PUBLIC "-//W3C//DTD SVG 1.1//EN" "http://www.w3.org/Graphics/SVG/1.1/DTD/svg11.dtd">
<svg xmlns="http://www.w3.org/2000/svg" xmlns:xlink="http://www.w3.org/1999/xlink" version="1.1" id="Capa_1" x="0px" y="0px" width="64px" height="64px" viewBox="0 0 562.626 562.626" style="enable-background:new 0 0 562.626 562.626;" xml:space="preserve">
<g>
	<path d="M558.332,381.552c0-0.21-0.037-0.43-0.121-0.625l-15.915-36.511l-12.19-60.327c-0.028-0.124-0.094-0.229-0.149-0.338   v-14.729h22.449v-5.854h-22.449v-13.995h22.449v-5.855h-22.449v-12.113h22.327v-5.85h-22.327v-13.266h22.449v-5.85h-22.449V192.58   c0-0.259-0.074-0.493-0.178-0.698c-0.064-0.238-0.158-0.469-0.316-0.646l-12.163-19.842c-0.299-0.483-0.84-0.775-1.4-0.745   c-0.555,0.019-1.063,0.338-1.32,0.84l-10.459,20.052c-0.065,0.131-0.107,0.269-0.14,0.406c-0.084,0.191-0.126,0.408-0.126,0.637   v13.658h-21.222v5.851h0.588c-11.873,5.841-20.73,2.676-25.23,0h0.99v-5.851H436.54v-13.658c0-0.259-0.084-0.492-0.187-0.697   c-0.065-0.238-0.159-0.469-0.309-0.645l-12.172-19.844c-0.298-0.483-0.84-0.775-1.391-0.745c-0.56,0.019-1.073,0.339-1.335,0.84   l-10.444,20.052c-0.075,0.13-0.112,0.268-0.141,0.408c-0.093,0.189-0.145,0.406-0.145,0.635v13.658h-21.212v5.85h4.149   c-11.859,5.841-20.731,2.677-25.216,0h1.105v-5.85h-22.443v-13.658c0-0.259-0.08-0.492-0.178-0.698   c-0.07-0.238-0.159-0.469-0.317-0.644l-12.162-19.845c-0.299-0.483-0.841-0.774-1.392-0.744c-0.569,0.019-1.073,0.338-1.334,0.84   l-10.455,20.052c-0.064,0.131-0.103,0.269-0.13,0.409c-0.094,0.189-0.141,0.406-0.141,0.635v13.658h-21.226v5.85h9.092   c-13.367,12.956-30.465,22.117-47.798,28.602v-14.799c0-1.731-1.391-3.131-3.127-3.131H80.188c-1.725,0-3.137,1.4-3.137,3.131   v27.158H0v132.303h20.888h56.163v3.477c0,1.736,1.412,3.137,3.137,3.137h24.25h54.313h98.875c1.736,0,3.127-1.4,3.127-3.137   V281.371c12.377-2.786,27.113-6.776,41.853-12.349h18.08v15.059l-14.066,60.312l-15.925,36.534   c-0.084,0.195-0.116,0.415-0.116,0.625h-4.396v4.597h23.503v-4.597h-5.601l24.592-35.097h8.391l24.297,35.097h-5.414v4.597h19.947   h3.566h19.938v-4.597h-5.61l24.605-35.097h8.392l24.296,35.097h-5.404v4.597h23.504v-4.597h-4.294c0-0.21-0.037-0.43-0.117-0.625   l-15.914-36.511l-12.195-60.327c-0.028-0.124-0.094-0.229-0.135-0.338v-14.729h22.434v-5.854h-22.434v-13.995h22.434v-5.855   h-22.434v-12.113h17.394c1.937,1.578,7.767,5.645,16.325,5.645c5.05,0,11.075-1.449,17.81-5.645h15.794v12.113h-21.227v5.855   h21.227v13.995h-21.227v5.854h21.227v15.059l-14.066,60.312l-15.934,36.534c-0.084,0.195-0.107,0.415-0.107,0.625h-4.396v4.597   h23.504v-4.597h-5.615l24.596-35.097h8.392l24.306,35.097h-5.404v4.597h23.504v-4.597H558.332z M74.97,381.169h-49.9V267.673h49.9   V381.169z M74.97,263.496H20.888v117.673H4.182V257.235h70.792v6.261H74.97z M426.235,263.167l7.154-3.729v3.729H426.235z    M433.39,269.022v11.077l-16.755-11.077H433.39z M425.017,243.323l8.373-5.185v5.185H425.017z M433.39,249.173v5.904l-14.286-5.904   H433.39z M417.419,225.359l15.971-7.803v7.803H417.419z M433.39,231.209v3.456l-7.785-3.456H433.39z M418.982,206.243l-4.107-2.035   l18.52-8.665v10.695h-14.412V206.243z M433.39,212.093v1.267l-2.562-1.267H433.39z M422.637,175.389l9.386,15.313h-17.357   L422.637,175.389z M413.54,194.153h16.914l-16.914,7.908V194.153z M413.54,212.093h11.631l6.805,3.36l-18.436,9.012V212.093   L413.54,212.093z M413.54,231.209h5.886l11.882,5.276l-11.061,6.844h-6.707V231.209z M413.54,249.546   c0.075,0.049,0.136,0.101,0.225,0.128l18.36,7.588l-11.304,5.899h-7.281V249.546L413.54,249.546z M413.54,269.981l19.438,12.851   H413.54V269.981z M413.186,285.971h20.666l1.372,6.809h-23.625L413.186,285.971z M405.653,324.708l17.511-7.281l16.979,7.244   l-17.688,7.967L405.653,324.708z M419.444,333.986l-19.509,8.802l3.795-16.228L419.444,333.986z M404.696,322.388l2.717-11.678   l12.521,5.344L404.696,322.388z M409.639,308.932l13.665-6.804l13.769,6.8l-13.89,5.777L409.639,308.932z M423.295,299.333   l-8.214-4.056h16.344L423.295,299.333z M410.848,296l9.619,4.736l-12.135,6.049L410.848,296z M380.376,217.402   c4.929,0,10.771-1.351,17.306-5.309h12.723v13.266h-21.329v5.85h4.929c-12.694,6.553-22.047,2.772-26.425,0h1.55v-5.85h-22.327   v-1.939c5.119-3.418,9.978-7.185,14.43-11.327h3.249C366.748,213.841,372.358,217.402,380.376,217.402z M320.693,231.209v3.813   c-6.151,2.63-12.419,4.917-18.659,6.912c3.557-3.341,6.814-6.912,9.676-10.725H320.693z M320.693,237.27v6.053h-16.231   C309.89,241.542,315.326,239.533,320.693,237.27z M343.665,213.355l-2.558-1.267h2.558V213.355z M343.665,222.974   c-1.26,0.817-2.539,1.61-3.836,2.385h-12.126l15.962-7.803V222.974z M338.004,249.173c-1.106,0.733-2.24,1.458-3.389,2.166   l-5.236-2.166H338.004z M335.302,243.323l8.363-5.185v5.185H335.302z M343.665,234.661l-7.775-3.456h7.775V234.661z    M331.792,232.136l9.791,4.345l-11.051,6.842h-6.712v-7.407C326.509,234.721,329.169,233.461,331.792,232.136z M323.82,249.546   c0.075,0.049,0.141,0.101,0.215,0.128l7.915,3.274c-2.65,1.559-5.367,3.055-8.13,4.478V249.546z M334.331,253.929l8.074,3.334   l-11.313,5.899h-7.271v-3.428C327.409,257.915,330.933,255.985,334.331,253.929z M326.919,269.022h16.746v11.077L326.919,269.022z    M343.254,282.832H323.82v-12.851L343.254,282.832z M336.515,263.167l7.15-3.729v3.729H336.515z M323.461,285.971h20.657   l1.381,6.809h-23.625L323.461,285.971z M341.705,295.282l-8.14,4.056l-8.214-4.056H341.705z M333.575,302.128l13.776,6.8   l-13.898,5.777l-13.524-5.773L333.575,302.128z M350.413,324.666l-17.679,7.967l-16.801-7.925l17.511-7.281L350.413,324.666z    M352.322,326.555l3.389,16.765h-0.341l-19.648-9.273L352.322,326.555z M336.674,316.073l12.484-5.189l2.324,11.509   L336.674,316.073z M336.389,300.723l9.745-4.849l2.166,10.715L336.389,300.723z M343.665,249.173v5.904l-6.692-2.768   c1.605-1.02,3.183-2.07,4.732-3.136H343.665z M346.802,231.209h12.152c-3.584,4.163-7.682,8.025-12.152,11.598V231.209z    M358.109,212.093c-3.542,3.159-7.332,6.088-11.308,8.807v-8.807H358.109z M343.665,206.243h-14.402l-4.117-2.035l18.52-8.665   V206.243z M332.912,175.389l9.39,15.313H324.94L332.912,175.389z M323.82,194.153h16.914l-16.914,7.908V194.153z M323.82,212.093   h11.631l6.805,3.36l-18.431,9.012v-12.372H323.82z M329.006,231.209c-1.713,0.845-3.449,1.659-5.19,2.441v-2.441H329.006z    M311.514,212.093h9.18v13.266h-21.352v5.85h9.745c-3.459,4.387-7.444,8.44-11.822,12.19c-12.867,3.815-25.47,6.415-36.513,8.184   v-8.671C279.236,236.07,297.535,226.239,311.514,212.093z M293.181,246.728c-9.686,7.483-20.927,13.639-32.424,18.661v-11.709   C270.616,252.118,281.73,249.885,293.181,246.728z M231.044,254.941c-0.019-1.118-0.243-2.179-0.588-3.188   c7.719-1.725,15.847-3.904,24.036-6.644v7.404C244.702,253.891,236.516,254.594,231.044,254.941z M155.626,385.697h-48.055v-75.21   h48.055V385.697z M254.496,385.697h-92.604v-78.332c0-1.736-1.412-3.137-3.136-3.137h-54.318c-1.718,0-3.127,1.4-3.127,3.137   v78.332H83.321V229.025h171.17v13.901c-8.485,2.868-16.932,5.129-24.925,6.902c-1.82-3.064-5.122-5.129-8.942-5.129   c-5.181,0-9.446,3.766-10.265,8.708c-5.787,0.875-11.015,1.496-15.423,1.925c0-0.072,0.021-0.124,0.021-0.196   c0-5.769-4.669-10.443-10.447-10.443c-5.769,0-10.447,4.674-10.447,10.443c0,5.768,4.679,10.452,10.447,10.452   c4.975,0,9.117-3.484,10.174-8.135c4.425-0.429,9.687-1.05,15.532-1.925c0.205,5.586,4.77,10.06,10.41,10.06   c5.112,0,9.351-3.685,10.249-8.541c5.463-0.348,13.703-1.05,23.616-2.437v13.399c-9.941,3.981-19.9,7.155-29.039,9.661   c-1.449-0.761-3.083-1.239-4.826-1.239c-3.615,0-6.798,1.832-8.672,4.623c-6.813,1.547-12.741,2.679-17.284,3.454   c-1.085-4.621-5.208-8.072-10.156-8.072c-5.769,0-10.447,4.679-10.447,10.447c0,5.773,4.679,10.449,10.447,10.449   c5.778,0,10.447-4.676,10.447-10.449c0-0.103-0.019-0.196-0.03-0.299c4.24-0.723,9.654-1.75,15.877-3.136   c-0.383,1.083-0.625,2.226-0.625,3.435c0,5.773,4.669,10.449,10.447,10.449c5.766,0,10.445-4.676,10.445-10.449   c0-0.042-0.019-0.089-0.019-0.121c3.715-0.485,12.253-1.718,23.438-4.037V385.697z M227.665,279.21   c8.503-2.38,17.661-5.339,26.827-8.97v10.361c-11.285,2.341-19.919,3.594-23.662,4.082   C230.365,282.526,229.228,280.643,227.665,279.21z M260.757,267.645c13.485-5.827,26.665-13.177,37.539-22.395   c0.379-0.11,0.771-0.233,1.162-0.346v4.273h21.227v9.827c-2.996,1.468-6.039,2.854-9.102,4.167h-12.125v4.816   c-13.637,4.994-27.181,8.65-38.706,11.25v-11.593H260.757z M316.694,263.167c1.334-0.607,2.674-1.239,3.999-1.883v1.883H316.694z    M321.132,296l9.624,4.736l-12.144,6.049L321.132,296z M317.692,310.706l12.518,5.345l-15.238,6.333L317.692,310.706z    M314.001,326.565l15.737,7.425l-19.518,8.803L314.001,326.565z M301.349,379.979h-6.823l14.622-33.527h15.704L301.349,379.979z    M315.14,343.32l17.567-7.925l16.792,7.925H315.14z M364.093,379.979l-23.209-33.527h15.728l14.608,33.527H364.093z    M380.302,381.552h-0.831h-3.565h-0.737c0-0.21-0.028-0.43-0.122-0.625l-15.905-36.511l-12.199-60.327   c-0.019-0.124-0.084-0.229-0.14-0.338v-14.729h22.443v-5.854h-22.443v-13.995h22.443v-5.855h-19.783   c4.526-3.731,8.652-7.761,12.228-12.113h2.361c1.941,1.578,7.766,5.645,16.325,5.645c5.06,0,11.08-1.449,17.819-5.645h12.214   v12.113h-21.212v5.855h21.212v13.995h-21.212v5.854h21.212v15.059l-14.058,60.312l-15.919,36.534   C380.329,381.123,380.302,381.342,380.302,381.552z M391.073,379.979h-6.823l14.617-33.527h15.709L391.073,379.979z    M404.859,343.32l17.567-7.925l16.792,7.925H404.859z M460.948,379.979h-7.131l-23.214-33.527h15.728L460.948,379.979z    M445.444,343.32h-0.354l-19.648-9.273l16.62-7.486L445.444,343.32z M441.216,322.397l-14.817-6.319l12.489-5.189L441.216,322.397z    M438.015,306.594l-11.892-5.871l9.735-4.849L438.015,306.594z M538.87,343.32h-0.346l-19.657-9.273l16.629-7.486L538.87,343.32z    M516.729,302.128l13.777,6.8l-13.898,5.777l-13.535-5.773L516.729,302.128z M516.72,299.333l-8.214-4.056h16.345L516.72,299.333z    M533.568,324.666l-17.679,7.967l-16.807-7.925l17.512-7.281L533.568,324.666z M534.642,322.397l-14.813-6.319l12.494-5.189   L534.642,322.397z M531.449,306.594l-11.9-5.871l9.735-4.849L531.449,306.594z M519.679,263.167l7.15-3.729v3.729H519.679z    M526.829,269.022v11.077l-16.755-11.077H526.829z M518.456,243.323l8.373-5.185v5.185H518.456z M526.829,249.173v5.904   l-14.291-5.904H526.829z M510.845,225.359l15.984-7.803v7.803H510.845z M526.829,231.209v3.456l-7.794-3.456H526.829z    M512.412,206.243l-4.111-2.035l18.528-8.665v10.695h-14.417V206.243z M526.829,212.093v1.267l-2.566-1.267H526.829z    M516.067,175.389l9.39,15.313h-17.361L516.067,175.389z M506.976,194.153h16.913l-16.913,7.908V194.153z M506.976,212.093h11.63   l6.805,3.36l-18.43,9.012v-12.372H506.976z M506.976,231.209h5.89l11.868,5.276l-11.056,6.844h-6.712v-12.12H506.976z    M506.976,249.546c0.074,0.049,0.14,0.101,0.224,0.128l18.37,7.588l-11.322,5.899h-7.267v-13.616H506.976z M506.976,269.981   l19.434,12.851h-19.434V269.981z M506.621,285.971h20.665l1.373,6.809h-23.625L506.621,285.971z M482.501,225.359v5.85h1.372   c-12.703,6.553-22.057,2.772-26.435,0h1.41v-5.85H436.53v-13.266h17.819c2.264,1.748,7.878,5.309,15.896,5.309   c4.929,0,10.771-1.351,17.297-5.309h16.307v13.266H482.501z M504.282,296l9.629,4.736l-12.145,6.049L504.282,296z M500.853,310.706   l12.526,5.345l-15.252,6.333L500.853,310.706z M497.156,326.565l15.728,7.425l-19.508,8.803L497.156,326.565z M484.508,379.979   h-6.823l14.617-33.527h15.71L484.508,379.979z M498.29,343.32l17.571-7.925l16.792,7.925H498.29z M547.247,379.979l-23.209-33.527   h15.729l14.617,33.527H547.247z M141.795,352.551c0.233-1.503,1.587-4.289,5.031-4.019l4.879-0.005   c0.579,0,1.048,0.472,1.048,1.055c0,0.574-0.469,1.041-1.048,1.041h-4.954c-2.389-0.163-2.849,1.998-2.886,2.245   c-0.087,0.518-0.532,0.892-1.029,0.892c-0.065,0-0.11,0-0.166-0.01C142.101,353.653,141.709,353.121,141.795,352.551z" fill="#4d8a22"/>
</g>
<g>
</g>
<g>
</g>
<g>
</g>
<g>
</g>
<g>
</g>
<g>
</g>
<g>
</g>
<g>
</g>
<g>
</g>
<g>
</g>
<g>
</g>
<g>
</g>
<g>
</g>
<g>
</g>
<g>
</g>
</svg>
