<?xml version="1.0" encoding="iso-8859-1"?>
<!-- Generator: Adobe Illustrator 19.0.0, SVG Export Plug-In . SVG Version: 6.00 Build 0)  -->
<svg xmlns="http://www.w3.org/2000/svg" xmlns:xlink="http://www.w3.org/1999/xlink" version="1.1" id="Capa_1" x="0px" y="0px" viewBox="0 0 487.004 487.004" style="enable-background:new 0 0 487.004 487.004;" xml:space="preserve" width="64px" height="64px">
<g>
	<path d="M290.024,391.864c59.082-23.383,100.98-81.081,100.98-148.381c0-8.856-0.738-17.542-2.132-26.01   c-0.027-0.235-0.067-0.467-0.116-0.696c-12.744-75.278-78.403-132.793-157.252-132.793c-5.081,0-10.104,0.25-15.065,0.716   c-0.026,0.002-0.051,0.005-0.077,0.007C135.49,92.359,72.004,160.642,72.004,243.483c0,87.949,71.551,159.5,159.5,159.5   c20.216,0,39.561-3.789,57.374-10.68c0.01-0.003,0.02-0.005,0.031-0.008C289.296,392.184,289.665,392.033,290.024,391.864z    M300.768,370.27l15.596-39.414l29.916-28.19c1.166-1.099,1.949-2.542,2.236-4.118l3.065-16.872   c0.414-2.276-0.247-4.616-1.79-6.341s-3.795-2.64-6.104-2.482l-7.443,0.511c-1.125,0.078-2.234,0.006-3.312-0.188l20.279-15.02   c5.887-4.36,9.401-11.336,9.401-18.663v-14.239c0-1.82-0.661-3.558-1.827-4.906l13.935,3.903   c0.841,6.294,1.283,12.712,1.283,19.232C376.004,298.081,345.565,345.699,300.768,370.27z M352.757,218.134l-5.829,1.929   c-1.091,0.361-1.976,0.007-2.406-0.236c-0.43-0.243-1.188-0.818-1.441-1.94l-0.601-2.667l10.334,2.895   C352.795,218.122,352.776,218.128,352.757,218.134z M371.538,207.782l-37.114-10.395c-2.542-0.713-5.273-0.034-7.188,1.784   c-1.915,1.819-2.732,4.51-2.151,7.086l3.363,14.927c1.113,4.941,4.281,9.205,8.689,11.699c3.202,1.811,6.866,2.579,10.476,2.255   v4.354c0,2.594-1.245,5.065-3.329,6.609l-22.614,16.75l-20.7-39.937c-1.906-3.677-6.431-5.113-10.11-3.208   c-3.678,1.906-5.114,6.433-3.208,10.11l22.398,43.213c4.887,9.429,14.563,15.294,25.064,15.366l-0.917,5.045l-29.337,27.644   c-0.801,0.754-1.426,1.676-1.831,2.699l-21.679,54.787c-4.465,0.534-8.973-0.352-12.977-2.596   c-4.98-2.791-8.556-7.344-10.068-12.821c-2.204-7.979-2.268-10.16-2.268-10.382v-23.678c0-3.103-1.911-5.886-4.808-7l-5.223-2.009   c-6.498-2.5-12.246-6.684-16.622-12.101l-9.083-11.245c-1.718-2.128-4.462-3.154-7.152-2.671l-36.36,6.491   c-5.253,0.938-10.572-1.32-13.547-5.751l-3.813-5.681c-5.945-8.857-6.586-20.241-1.674-29.709l8.335-16.068   c0.58-1.117,0.869-2.362,0.84-3.621l-0.135-6.072c-0.091-4.088,2.765-7.571,6.792-8.282l32.547-5.747   c4.742-0.836,9.564,0.166,13.578,2.823l18.791,12.437c1.925,1.273,4.328,1.59,6.518,0.859l30.789-10.293   c0.981-0.328,1.883-0.855,2.65-1.548l4.454-4.024c4.557-4.118,7.157-10.002,7.132-16.145s-2.672-12.006-7.263-16.087   c-1.939-1.723-4.629-2.322-7.116-1.585l-23.013,6.826l-14.052-12.863c-3.685-3.374-8.845-4.285-13.463-2.379   c-3.118,1.287-5.505,3.657-6.799,6.597l-1.598-1.417c-0.41-0.364-0.859-0.681-1.338-0.947c-8.806-4.882-19.68-3.561-27.06,3.288   l-7.656,7.106c-0.596,0.553-1.097,1.199-1.486,1.913l-6.574,12.082l-7.424-2.064c-1.235-0.343-2.111-1.434-2.179-2.714   l-0.375-7.004c-0.085-1.585,1.085-2.958,2.663-3.125l9.326-0.99c3.814-0.405,6.708-3.623,6.708-7.458v-11.007l17.857-13.477   c2.52-1.901,4.593-4.254,6.162-6.994l6.437-11.236c1.459-2.548,1.298-5.713-0.414-8.099c-1.711-2.387-4.663-3.555-7.539-2.988   l-19.844,3.895c0.485-3.335,2.201-6.369,4.871-8.522l28.82-23.244l18.53,10.671c2.991,1.723,6.471,2.159,9.793,1.229   c3.324-0.931,6.07-3.109,7.732-6.135l3.175-5.78C312.8,111.183,357.655,153.358,371.538,207.782z M189.089,207.406l2.705-4.971   l6.757-6.271c2.442-2.266,5.965-2.823,8.961-1.475l13.02,11.541c-5.406-1.898-11.236-2.391-17.001-1.373L189.089,207.406z    M233.706,200.367l-0.625-5.062l12.578,11.514c1.942,1.778,4.674,2.406,7.197,1.658l21.937-6.507   c0.167,0.583,0.255,1.196,0.257,1.826c0.008,1.913-0.769,3.672-2.188,4.955l-3.291,2.974l-25.833,8.636l-15.742-10.419   c-0.615-0.407-1.241-0.792-1.876-1.157c1.244,0.026,2.49-0.258,3.636-0.861C232.515,206.472,234.088,203.462,233.706,200.367z    M87.004,243.483c0-64.71,42.756-119.622,101.502-137.968l-9.044,7.294c-6.733,5.431-10.595,13.507-10.595,22.157v7.184   c0,2.242,1.003,4.367,2.735,5.792s4.012,2,6.209,1.568l11.235-2.205l-19.716,14.879c-1.878,1.417-2.982,3.634-2.982,5.987v7.998   l-2.618,0.278c-9.516,1.01-16.57,9.288-16.058,18.844l0.375,7.004c0.354,6.606,4.273,12.375,10.064,15.199   c-4.07,4.299-6.453,10.14-6.311,16.499l0.092,4.154l-7.452,14.365c-7.436,14.334-6.464,31.568,2.535,44.976l3.813,5.681   c6.288,9.368,17.525,14.141,28.637,12.159l31.995-5.712l6.296,7.795c6.03,7.465,13.951,13.231,22.906,16.675l0.415,0.16v18.527   c0,1.958,0.319,5.362,2.809,14.375c2.071,7.499,6.402,13.977,12.406,18.709c-8.044,1.394-16.312,2.129-24.749,2.129   C151.827,387.983,87.004,323.161,87.004,243.483z" fill="#c43db7"/>
	<path d="M150.894,170.958c0.208,0.017,0.414,0.025,0.619,0.025c3.865,0,7.146-2.969,7.467-6.89l1.379-16.879   c0.337-4.128-2.736-7.749-6.864-8.086c-4.132-0.343-7.749,2.736-8.086,6.864l-1.379,16.879   C143.692,167.001,146.765,170.621,150.894,170.958z" fill="#c43db7"/>
	<path d="M256.004,171.483c0,4.142,3.358,7.5,7.5,7.5h16c4.142,0,7.5-3.358,7.5-7.5s-3.358-7.5-7.5-7.5h-16   C259.362,163.983,256.004,167.341,256.004,171.483z" fill="#c43db7"/>
	<path d="M288.638,161.627l17.961,15.53c1.418,1.226,3.164,1.827,4.902,1.827c2.103,0,4.194-0.879,5.677-2.595   c2.709-3.133,2.365-7.87-0.768-10.579l-17.961-15.53c-3.133-2.709-7.869-2.365-10.579,0.768   C285.161,154.182,285.505,158.918,288.638,161.627z" fill="#c43db7"/>
	<path d="M487.004,243.483c0-15.61-11.416-28.598-26.337-31.07c0.086-0.661,0.092-1.343-0.007-2.036c-0.59-4.1-4.39-6.95-8.49-6.36   c-4.1,0.58-6.95,4.39-6.36,8.49c0.047,0.322,0.12,0.633,0.205,0.939c-12.746,4.036-22.011,15.973-22.011,30.037   c0,14.045,9.241,25.968,21.961,30.02c-0.044,0.196-0.086,0.393-0.115,0.595c-0.58,4.11,2.27,7.9,6.37,8.48   c0.36,0.05,0.72,0.07,1.07,0.07c3.67,0,6.88-2.7,7.41-6.44c0.08-0.565,0.089-1.123,0.045-1.668   C475.627,272.036,487.004,259.067,487.004,243.483z M455.504,259.983c-9.098,0-16.5-7.402-16.5-16.5s7.402-16.5,16.5-16.5   s16.5,7.402,16.5,16.5S464.603,259.983,455.504,259.983z" fill="#c43db7"/>
	<path d="M31.18,142.878c1.14,0.62,2.37,0.92,3.58,0.92c2.66,0,5.23-1.42,6.59-3.91c1.99-3.64,0.65-8.19-2.98-10.18   c-3.64-1.98-8.2-0.64-10.18,2.99C26.2,136.338,27.54,140.888,31.18,142.878z" fill="#c43db7"/>
	<path d="M87.74,79.228c1.69,0,3.4-0.57,4.81-1.75c3.17-2.66,3.59-7.39,0.93-10.56c-2.66-3.18-7.39-3.6-10.56-0.94   c-3.18,2.66-3.6,7.39-0.94,10.57C83.47,78.318,85.59,79.228,87.74,79.228z" fill="#c43db7"/>
	<path d="M242.9,27.308c0.13,0,0.26,0.01,0.4,0.01c3.96,0,7.27-3.11,7.48-7.11c0.22-4.14-2.96-7.67-7.1-7.88   c-4.13-0.22-7.66,2.96-7.88,7.09C235.58,23.558,238.76,27.088,242.9,27.308z" fill="#c43db7"/>
	<path d="M110.26,62.638c1.39,0,2.8-0.39,4.05-1.2c3.48-2.24,4.49-6.89,2.24-10.37c-2.24-3.48-6.89-4.48-10.37-2.23   c-3.48,2.24-4.48,6.88-2.23,10.36C105.38,61.428,107.79,62.638,110.26,62.638z" fill="#c43db7"/>
	<path d="M45.31,118.698c1.32,0.96,2.86,1.42,4.37,1.42c2.33,0,4.63-1.08,6.1-3.11h-0.01c2.43-3.36,1.67-8.05-1.69-10.47   c-3.36-2.43-8.05-1.67-10.47,1.69C41.19,111.588,41.94,116.278,45.31,118.698z" fill="#c43db7"/>
	<path d="M10.18,279.078c4.11-0.51,7.02-4.26,6.51-8.37h-0.01c-0.51-4.11-4.26-7.03-8.37-6.51c-4.11,0.52-7.02,4.26-6.51,8.37   c0.48,3.8,3.71,6.57,7.43,6.57C9.54,279.138,9.86,279.118,10.18,279.078z" fill="#c43db7"/>
	<path d="M20.19,168.638c0.9,0.35,1.82,0.52,2.74,0.52c2.99,0,5.82-1.81,6.98-4.76c1.51-3.86-0.39-8.21-4.24-9.73   c-3.86-1.51-8.21,0.39-9.72,4.25C14.43,162.768,16.33,167.118,20.19,168.638z" fill="#c43db7"/>
	<path d="M7.5,251.218c4.15,0,7.5-3.36,7.5-7.5s-3.36-7.5-7.5-7.5s-7.5,3.36-7.5,7.51C0,247.868,3.36,251.218,7.5,251.218z" fill="#c43db7"/>
	<path d="M21.72,297.268c-1.02-4.02-5.11-6.44-9.12-5.41c-4.01,1.02-6.43,5.11-5.41,9.12c0.87,3.39,3.92,5.65,7.26,5.65   c0.62,0,1.24-0.08,1.87-0.24C20.33,305.358,22.75,301.278,21.72,297.268z" fill="#c43db7"/>
	<path d="M8.29,223.238c0.31,0.04,0.62,0.06,0.93,0.06c3.73,0,6.96-2.78,7.43-6.58c0.51-4.11-2.41-7.86-6.52-8.36   c-4.11-0.51-7.86,2.41-8.36,6.52C1.26,218.988,4.18,222.738,8.29,223.238z" fill="#c43db7"/>
	<path d="M12.52,195.578c0.62,0.16,1.24,0.23,1.85,0.23c3.35,0,6.4-2.26,7.26-5.66c1.02-4.02-1.41-8.1-5.43-9.11   c-4.01-1.02-8.09,1.41-9.11,5.43C6.08,190.478,8.51,194.558,12.52,195.578z" fill="#c43db7"/>
	<path d="M134.65,48.978c1.09,0,2.2-0.24,3.25-0.74c3.73-1.79,5.3-6.28,3.51-10.01c-1.8-3.73-6.28-5.31-10.01-3.51   c-3.73,1.79-5.31,6.27-3.51,10.01C129.18,47.408,131.86,48.978,134.65,48.978z" fill="#c43db7"/>
	<path d="M296.03,36.788c0.74,0.23,1.49,0.34,2.23,0.34c3.2,0,6.16-2.06,7.16-5.27c1.23-3.96-0.97-8.16-4.93-9.39   c-3.96-1.24-8.16,0.97-9.39,4.93C289.87,31.348,292.08,35.558,296.03,36.788z" fill="#c43db7"/>
	<path d="M269.77,30.388c0.44,0.07,0.88,0.11,1.32,0.11c3.57,0,6.73-2.55,7.38-6.18c0.72-4.08-2-7.98-6.07-8.7   c-4.08-0.73-7.97,1.99-8.7,6.07C262.97,25.758,265.69,29.658,269.77,30.388z" fill="#c43db7"/>
	<path d="M321.3,46.437c1.01,0.46,2.06,0.68,3.1,0.68c2.85,0,5.57-1.63,6.83-4.39c1.72-3.77,0.06-8.22-3.71-9.94   c0,0.01,0,0.01,0,0.01c-3.77-1.72-8.22-0.06-9.93,3.7C315.87,40.268,317.53,44.718,321.3,46.437z" fill="#c43db7"/>
	<path d="M215.31,27.568c0.18,0,0.36,0,0.54-0.02v0.01c4.13-0.3,7.24-3.89,6.95-8.02c-0.3-4.13-3.89-7.24-8.02-6.95   c-4.13,0.3-7.24,3.89-6.95,8.02C208.12,24.558,211.41,27.568,215.31,27.568z" fill="#c43db7"/>
	<path d="M187.58,31.298c0.49,0,0.98-0.04,1.47-0.14c4.07-0.81,6.7-4.76,5.9-8.82c-0.81-4.06-4.76-6.7-8.82-5.89   c0-0.01,0-0.01,0-0.01c-4.07,0.81-6.7,4.76-5.9,8.83C180.94,28.828,184.08,31.298,187.58,31.298z" fill="#c43db7"/>
	<path d="M367.23,74.808c1.38,1.12,3.05,1.67,4.7,1.67c2.19,0,4.36-0.96,5.84-2.8c2.6-3.22,2.1-7.95-1.13-10.54   c-3.23-2.6-7.95-2.1-10.55,1.13C363.5,67.498,364,72.218,367.23,74.808z" fill="#c43db7"/>
	<path d="M440.3,186.038c0.92,3.33,3.94,5.52,7.23,5.52c0.66,0,1.32-0.09,1.99-0.27c3.99-1.1,6.34-5.23,5.24-9.22   c-1.09-4-5.22-6.35-9.22-5.25C441.55,177.917,439.2,182.048,440.3,186.038z" fill="#c43db7"/>
	<path d="M345.15,59.187c1.23,0.76,2.59,1.12,3.94,1.12c2.51,0,4.97-1.26,6.38-3.56c2.18-3.52,1.09-8.14-2.43-10.32   c-3.53-2.18-8.15-1.09-10.33,2.44C340.54,52.388,341.63,57.008,345.15,59.187z" fill="#c43db7"/>
	<path d="M30.06,322.978c-1.53-3.85-5.88-5.74-9.73-4.22c-3.86,1.52-5.75,5.88-4.22,9.73c1.16,2.95,3.99,4.75,6.97,4.75   c0.92,0,1.85-0.17,2.76-0.53C29.69,331.188,31.58,326.828,30.06,322.978z" fill="#c43db7"/>
	<path d="M160.55,38.478c0.79,0,1.59-0.13,2.38-0.39c3.93-1.31,6.05-5.56,4.74-9.49c-1.32-3.93-5.57-6.05-9.49-4.74   c-3.93,1.31-6.05,5.56-4.74,9.49C154.49,36.488,157.41,38.478,160.55,38.478z" fill="#c43db7"/>
	<path d="M392.59,95.348c1.87,0,3.75-0.7,5.21-2.1c2.98-2.88,3.06-7.63,0.18-10.61s-7.63-3.06-10.61-0.18   c-2.98,2.88-3.06,7.62-0.18,10.6C388.66,94.588,390.62,95.348,392.59,95.348z" fill="#c43db7"/>
	<path d="M431.51,160.478c1.2,2.88,3.99,4.62,6.93,4.62c0.96,0,1.93-0.18,2.87-0.58c3.83-1.59,5.64-5.98,4.05-9.8   c-1.59-3.83-5.98-5.64-9.81-4.05C431.73,152.258,429.92,156.647,431.51,160.478z" fill="#c43db7"/>
	<path d="M387.43,393.708c-2.87,2.98-2.79,7.73,0.2,10.6c1.45,1.4,3.33,2.1,5.2,2.1c1.97,0,3.93-0.77,5.4-2.29   c2.87-2.99,2.79-7.73-0.19-10.61C395.05,390.638,390.31,390.718,387.43,393.708z" fill="#c43db7"/>
	<path d="M410.74,116.638c1.57,0,3.15-0.49,4.5-1.5c3.31-2.49,3.98-7.19,1.5-10.5c-0.01,0-0.01,0-0.01,0   c-2.48-3.32-7.18-3.99-10.5-1.5c-3.31,2.49-3.98,7.19-1.49,10.5C406.21,115.598,408.46,116.638,410.74,116.638z" fill="#c43db7"/>
	<path d="M367.49,411.968c-3.22,2.61-3.73,7.33-1.12,10.55c1.48,1.84,3.65,2.79,5.84,2.79c1.65,0,3.32-0.55,4.71-1.67   c3.22-2.6,3.72-7.32,1.12-10.54C375.43,409.868,370.71,409.368,367.49,411.968z" fill="#c43db7"/>
	<path d="M321.63,440.408c-3.76,1.73-5.42,6.18-3.69,9.94c1.26,2.75,3.98,4.38,6.82,4.38c1.05,0,2.11-0.22,3.13-0.69   c3.76-1.72,5.41-6.18,3.69-9.94C329.85,440.328,325.4,438.678,321.63,440.408z" fill="#c43db7"/>
	<path d="M345.44,427.628c-3.52,2.18-4.6,6.8-2.42,10.32c1.42,2.29,3.87,3.55,6.38,3.55c1.35,0,2.72-0.36,3.95-1.12   c3.52-2.19,4.6-6.81,2.42-10.33C353.59,426.528,348.96,425.438,345.44,427.628z" fill="#c43db7"/>
	<path d="M41.54,347.438c-1.99-3.63-6.55-4.96-10.18-2.97c-3.63,1.99-4.96,6.55-2.97,10.18c1.36,2.49,3.93,3.89,6.58,3.89   c1.22,0,2.46-0.29,3.6-0.92C42.2,355.628,43.53,351.068,41.54,347.438z" fill="#c43db7"/>
	<path d="M449.6,295.318c-3.99-1.09-8.11,1.27-9.2,5.26c-1.09,4,1.27,8.12,5.26,9.21c0.66,0.18,1.33,0.27,1.98,0.27   c3.3,0,6.32-2.2,7.23-5.54C455.96,300.528,453.6,296.397,449.6,295.318z" fill="#c43db7"/>
	<path d="M415.45,371.588c-3.31-2.48-8.01-1.8-10.49,1.51h-0.01c-2.48,3.32-1.8,8.02,1.52,10.5c1.34,1.01,2.92,1.5,4.48,1.5   c2.29,0,4.54-1.04,6.01-3.01C419.45,378.778,418.77,374.078,415.45,371.588z" fill="#c43db7"/>
	<path d="M296.42,450.108c-3.95,1.24-6.15,5.45-4.91,9.4c1.01,3.21,3.97,5.26,7.16,5.26c0.74,0,1.5-0.12,2.25-0.35   c3.95-1.24,6.15-5.45,4.9-9.4C304.58,451.068,300.37,448.868,296.42,450.108z" fill="#c43db7"/>
	<path d="M430.01,347.667c-3.6-2.05-8.18-0.79-10.23,2.81c-2.05,3.6-0.79,8.18,2.81,10.23c1.17,0.67,2.44,0.98,3.7,0.98   c2.61,0,5.14-1.36,6.53-3.79C434.87,354.298,433.61,349.718,430.01,347.667z" fill="#c43db7"/>
	<path d="M426.11,140.008c1.26,0,2.54-0.32,3.71-0.99c3.6-2.06,4.85-6.64,2.79-10.24c-2.05-3.59-6.63-4.84-10.23-2.79   c-3.6,2.06-4.84,6.64-2.79,10.24C420.98,138.647,423.51,140.008,426.11,140.008z" fill="#c43db7"/>
	<path d="M441.46,322.118c-3.83-1.59-8.22,0.23-9.8,4.06c-1.58,3.83,0.24,8.22,4.07,9.8c0.93,0.39,1.9,0.57,2.86,0.57   c2.94,0,5.74-1.75,6.93-4.64c0.01,0,0.01,0,0.01,0C447.11,328.078,445.28,323.698,441.46,322.118z" fill="#c43db7"/>
	<path d="M270.18,456.568c-4.08,0.74-6.79,4.64-6.05,8.72c0.65,3.62,3.81,6.17,7.37,6.17c0.44,0,0.89-0.04,1.34-0.12   c4.08-0.74,6.78-4.64,6.05-8.72C278.15,458.548,274.25,455.838,270.18,456.568z" fill="#c43db7"/>
	<path d="M92.81,409.758c-3.18-2.65-7.91-2.23-10.57,0.95c-2.65,3.18-2.23,7.91,0.95,10.56c1.4,1.18,3.11,1.75,4.81,1.75   c2.14,0,4.27-0.92,5.75-2.69C96.41,417.147,95.99,412.417,92.81,409.758z" fill="#c43db7"/>
	<path d="M114.6,425.778c-3.48-2.24-8.12-1.23-10.36,2.25c-2.24,3.49-1.23,8.12,2.25,10.36c1.26,0.81,2.66,1.2,4.05,1.2   c2.47,0,4.89-1.22,6.32-3.45C119.1,432.658,118.09,428.018,114.6,425.778z" fill="#c43db7"/>
	<path d="M67.44,98.488c2.01,0,4.01-0.8,5.49-2.39c2.82-3.03,2.65-7.78-0.38-10.6c-3.03-2.82-7.78-2.65-10.6,0.38   c-2.82,3.03-2.65,7.78,0.38,10.6C63.78,97.828,65.61,98.488,67.44,98.488z" fill="#c43db7"/>
	<path d="M45.52,368.598c-3.36,2.43-4.11,7.12-1.68,10.47c1.46,2.03,3.76,3.11,6.08,3.11c1.52,0,3.06-0.46,4.39-1.43   c3.36-2.42,4.11-7.11,1.68-10.47C53.56,366.928,48.87,366.167,45.52,368.598z" fill="#c43db7"/>
	<path d="M62.57,390.788c-3.03,2.83-3.2,7.58-0.37,10.61c1.48,1.58,3.48,2.38,5.49,2.38c1.83,0,3.67-0.67,5.11-2.02   c3.03-2.82,3.19-7.57,0.37-10.59C70.34,388.138,65.6,387.968,62.57,390.788z" fill="#c43db7"/>
	<path d="M243.32,459.698c-4.14,0.22-7.31,3.75-7.09,7.89c0.21,4,3.52,7.1,7.48,7.1c0.14,0,0.27-0.01,0.41-0.01   c4.14-0.22,7.31-3.76,7.09-7.89C250.99,462.647,247.46,459.478,243.32,459.698z" fill="#c43db7"/>
	<path d="M216.27,459.468c-4.14-0.29-7.72,2.83-8.01,6.96s2.83,7.72,6.96,8.01c0.18,0.01,0.35,0.02,0.53,0.02   c3.9,0,7.2-3.03,7.47-6.98C223.51,463.348,220.4,459.758,216.27,459.468z" fill="#c43db7"/>
	<path d="M138.23,438.948c-3.74-1.79-8.22-0.21-10,3.53c-1.79,3.74-0.21,8.21,3.53,10c1.04,0.5,2.15,0.73,3.23,0.73   c2.8,0,5.48-1.57,6.77-4.26C143.55,445.208,141.96,440.728,138.23,438.948z" fill="#c43db7"/>
	<path d="M163.32,449.048c-3.94-1.3-8.18,0.83-9.48,4.76c-1.3,3.93,0.83,8.18,4.76,9.48c0.78,0.26,1.58,0.38,2.36,0.38   c3.14,0,6.08-1.99,7.12-5.14C169.38,454.598,167.25,450.348,163.32,449.048z" fill="#c43db7"/>
	<path d="M189.46,455.917c-4.06-0.8-8.01,1.85-8.81,5.91c-0.8,4.07,1.85,8.01,5.92,8.81c0.48,0.1,0.97,0.14,1.45,0.14   c3.51,0,6.65-2.48,7.35-6.05C196.17,460.658,193.52,456.718,189.46,455.917z" fill="#c43db7"/>
</g>
<g>
</g>
<g>
</g>
<g>
</g>
<g>
</g>
<g>
</g>
<g>
</g>
<g>
</g>
<g>
</g>
<g>
</g>
<g>
</g>
<g>
</g>
<g>
</g>
<g>
</g>
<g>
</g>
<g>
</g>
</svg>
