<?xml version="1.0" encoding="iso-8859-1"?>
<!-- Generator: Adobe Illustrator 16.0.0, SVG Export Plug-In . SVG Version: 6.00 Build 0)  -->
<!DOCTYPE svg PUBLIC "-//W3C//DTD SVG 1.1//EN" "http://www.w3.org/Graphics/SVG/1.1/DTD/svg11.dtd">
<svg xmlns="http://www.w3.org/2000/svg" xmlns:xlink="http://www.w3.org/1999/xlink" version="1.1" id="Capa_1" x="0px" y="0px" width="64px" height="64px" viewBox="0 0 371.441 371.441" style="enable-background:new 0 0 371.441 371.441;" xml:space="preserve">
<g>
	<g>
		<rect x="162.046" y="162.045" width="47.349" height="47.349" fill="#D80027"/>
		<path d="M352.603,0H18.841C8.435,0,0.001,8.434,0.001,18.84v333.761c0,10.404,8.434,18.84,18.84,18.84h333.761    c10.406,0,18.838-8.436,18.838-18.84V217.645v-13.327V18.84C371.44,8.434,363.009,0,352.603,0z M284.733,157.815    c0,2.338-1.895,4.23-4.23,4.23h-37.236v47.349h37.236c2.336,0,4.23,1.896,4.23,4.23v25.41c0,2.336-1.895,4.232-4.23,4.232h-37.236    v37.233c0,2.337-1.895,4.229-4.23,4.229h-25.408c-2.337,0-4.23-1.895-4.23-4.229v-37.233h-47.35v37.233    c0,2.337-1.894,4.229-4.23,4.229h-25.409c-2.336,0-4.231-1.895-4.231-4.229v-37.233H90.942c-2.336,0-4.231-1.896-4.231-4.232    v-25.41c0-2.336,1.895-4.23,4.231-4.23h37.235v-47.349H90.942c-2.336,0-4.231-1.893-4.231-4.23v-25.408    c0-2.336,1.895-4.23,4.231-4.23h37.235V90.941c0-2.336,1.895-4.229,4.231-4.229h25.409c2.336,0,4.23,1.895,4.23,4.229v37.236    h47.35V90.941c0-2.336,1.894-4.229,4.23-4.229h25.408c2.336,0,4.23,1.895,4.23,4.229v37.236h37.236c2.336,0,4.23,1.895,4.23,4.23    V157.815z" fill="#D80027"/>
	</g>
</g>
<g>
</g>
<g>
</g>
<g>
</g>
<g>
</g>
<g>
</g>
<g>
</g>
<g>
</g>
<g>
</g>
<g>
</g>
<g>
</g>
<g>
</g>
<g>
</g>
<g>
</g>
<g>
</g>
<g>
</g>
</svg>
