<?xml version="1.0" encoding="iso-8859-1"?>
<!-- Generator: Adobe Illustrator 16.0.0, SVG Export Plug-In . SVG Version: 6.00 Build 0)  -->
<!DOCTYPE svg PUBLIC "-//W3C//DTD SVG 1.1//EN" "http://www.w3.org/Graphics/SVG/1.1/DTD/svg11.dtd">
<svg xmlns="http://www.w3.org/2000/svg" xmlns:xlink="http://www.w3.org/1999/xlink" version="1.1" id="Capa_1" x="0px" y="0px" width="64px" height="64px" viewBox="0 0 549.584 549.584" style="enable-background:new 0 0 549.584 549.584;" xml:space="preserve">
<g>
	<path d="M424.236,133.244c1.661,0,3.112-1.118,3.542-2.728c0.42-1.605-0.299-3.298-1.741-4.114l-54.096-30.588   c-0.065-0.042-0.107-0.105-0.183-0.147l-19.373-11.194V3.66c0-1.583-1.012-2.982-2.515-3.475c-1.499-0.497-3.155,0.028-4.089,1.299   l-47.025,63.752l-49.613,0.128l-46.584-63.15c-0.938-1.274-2.59-1.792-4.088-1.304c-1.5,0.497-2.518,1.893-2.518,3.479v80.246   l-10.015,5.988c-0.04,0.019-0.087,0.019-0.126,0.044l-62.284,35.743c-1.44,0.821-2.142,2.513-1.715,4.114   c0.43,1.601,1.876,2.714,3.535,2.714h12.186v6.023h-5.734c-2.422,0-4.392,1.972-4.392,4.392c0,2.417,1.97,4.392,4.392,4.392h5.734   v4.028h-5.734c-2.422,0-4.392,1.969-4.392,4.394c0,2.422,1.97,4.392,4.392,4.392h5.734v12.081c0,1.615,1.311,2.924,2.931,2.924   h14.643c1.615,0,2.924-1.31,2.924-2.924v-12.081h6.711c2.422,0,4.392-1.974,4.392-4.392c0-2.42-1.969-4.394-4.392-4.394h-6.711   v-4.028h6.711c2.422,0,4.392-1.974,4.392-4.392c0-2.425-1.969-4.392-4.392-4.392h-6.711v-6.023h27.489l59.811,178.819   l-32.642,139.979L175.49,537.38c-0.206,0.471-0.283,0.971-0.283,1.465h-10.274v10.739h54.911v-10.739H206.74l57.468-82h19.608   l56.771,82h-12.634v10.739h54.908v-10.739h-10.029c0-0.499-0.08-0.994-0.285-1.465l-37.178-85.296l-28.297-140.008l55.926-178.842   h32.432v6.023h-5.735c-2.423,0-4.392,1.972-4.392,4.392c0,2.417,1.969,4.392,4.392,4.392h5.735v4.028h-5.735   c-2.423,0-4.392,1.97-4.392,4.394c0,2.422,1.969,4.392,4.392,4.392h5.735v12.081c0,1.615,1.312,2.924,2.931,2.924h14.641   c1.62,0,2.932-1.309,2.932-2.924v-12.081h6.711c2.422,0,4.392-1.974,4.392-4.392c0-2.42-1.97-4.394-4.392-4.394h-6.711v-4.028   h6.711c2.422,0,4.392-1.974,4.392-4.392c0-2.424-1.97-4.392-4.392-4.392h-6.711v-6.023h8.303V133.244z M164.741,155.009   c0.807,0,1.465,0.66,1.465,1.468c0,0.807-0.658,1.465-1.465,1.465h-32.947c-0.807,0-1.468-0.658-1.468-1.465   c0-0.808,0.661-1.468,1.468-1.468H164.741z M164.741,142.195c0.807,0,1.465,0.66,1.465,1.468c0,0.807-0.658,1.463-1.465,1.463   h-32.947c-0.807,0-1.468-0.656-1.468-1.463c0-0.808,0.661-1.468,1.468-1.468H164.741z M422.649,155.009   c0.807,0,1.465,0.66,1.465,1.468c0,0.807-0.658,1.465-1.465,1.465h-32.954c-0.808,0-1.461-0.658-1.461-1.465   c0-0.808,0.653-1.468,1.461-1.468H422.649z M422.649,142.195c0.807,0,1.465,0.66,1.465,1.468c0,0.807-0.658,1.463-1.465,1.463   h-32.954c-0.808,0-1.461-0.656-1.461-1.463c0-0.808,0.653-1.468,1.461-1.468H422.649z M232.575,449.532l41.061-18.51l39.215,18.51   H232.575z M221.087,448.286l8.834-37.896l36.751,17.348L221.087,448.286z M246.574,338.978l22.479,11.08l-28.357,14.127   L246.574,338.978z M256.447,337.316h38.188l-18.995,9.461L256.447,337.316z M275.654,353.315l32.189,15.868l-32.476,13.502   l-31.615-13.483L275.654,353.315z M238.558,373.356l29.253,12.47l-35.614,14.809L238.558,373.356z M234.439,406.048l40.905-17.007   l39.653,16.909l-41.308,18.621L234.439,406.048z M282.905,385.901l29.167-12.13l5.433,26.883L282.905,385.901z M282.244,350.035   l22.743-11.327l5.06,25.029L282.244,350.035z M248.322,331.459l3.708-15.91h48.276l3.22,15.91H248.322z M261.049,258.333   l-26.189-5.822l3.05-23.254L261.049,258.333z M315.414,226.308l2.249,25.834l-28.525,5.974L315.414,226.308z M283.712,264.683   l12.869,43.548h-42.342l11.67-43.796l6.59,8.275c0.551,0.691,1.381,1.097,2.266,1.106c0.009,0,0.014,0,0.023,0   c0.87,0,1.701-0.392,2.257-1.064L283.712,264.683z M230.127,243.545l-13.882-41.502l16.594,20.843L230.127,243.545z    M259.945,264.081l-10.179,38.177l-14.615-43.686L259.945,264.081z M301.678,304.82l-12.061-40.823l26.565-5.563L301.678,304.82z    M320.734,219.87l12.088-14.634l-10.455,33.426L320.734,219.87z M337.452,190.446l-62.621,75.796l-36.611-45.994l0,0   l-23.931-30.061l36.581-56.943h12.286v6.023h-5.733c-2.425,0-4.394,1.974-4.394,4.392s1.969,4.392,4.394,4.392h5.733v4.03h-5.733   c-2.425,0-4.394,1.967-4.394,4.392c0,2.422,1.969,4.392,4.394,4.392h5.733v12.081c0,1.615,1.309,2.924,2.931,2.924h14.643   c1.614,0,2.924-1.309,2.924-2.924v-12.081h6.711c2.427,0,4.396-1.975,4.396-4.392c0-2.42-1.97-4.392-4.396-4.392h-6.711v-4.03   h6.711c2.427,0,4.396-1.975,4.396-4.392c0-2.424-1.97-4.392-4.396-4.392h-6.711v-6.023h13.88l40.011,56.873L337.452,190.446z    M211.466,83.892l-22.146,37.649l-6.802-20.341L211.466,83.892z M271.186,72.637l-23.02,47.536l-23.361-44.255l5.309-3.176   L271.186,72.637z M317.038,72.511l4.526,2.613l-22.658,46.97l-18.225-49.487L317.038,72.511z M251.887,125.928l23.968-49.487   l18.225,49.487H251.887z M220.436,80.193l24.145,45.735h-51.046L220.436,80.193z M290.375,142.195c0.803,0,1.461,0.66,1.461,1.468   c0,0.807-0.658,1.463-1.461,1.463h-32.952c-0.81,0-1.468-0.656-1.468-1.463c0-0.808,0.658-1.468,1.468-1.468H290.375z    M290.375,155.009c0.803,0,1.461,0.66,1.461,1.468c0,0.807-0.658,1.465-1.461,1.465h-32.952c-0.81,0-1.468-0.658-1.468-1.465   c0-0.808,0.658-1.468,1.468-1.468H290.375z M325.937,79.556l26.678,46.367h-49.052L325.937,79.556z M334.417,82.547l25.431,14.697   c0.168,0.138,0.299,0.315,0.495,0.425l5.204,2.938l-7.305,23.352L334.417,82.547z M341.997,78.476l-14.328-35.953l17.395-6.508   v44.23L341.997,78.476z M345.063,28.323c-0.196,0.044-0.396,0.025-0.583,0.098l-13.077,4.893l13.66-18.519V28.323z M321.48,46.763   l10.277,25.797l-11.905-6.882c-0.556-0.322-1.19-0.492-1.835-0.492c-0.005,0-0.005,0-0.009,0l-10.146,0.028L321.48,46.763z    M229.091,65.419c-0.66,0-1.304,0.182-1.869,0.521l-11.579,6.926l10.503-26.348l13.922,18.874L229.091,65.419z M218.219,35.774   l-14.944-5.591V15.521L218.219,35.774z M203.275,38.002l15.994,5.983l-13.973,35.068l-2.016,1.204V38.002H203.275z    M139.077,125.928l36.905-21.182l7.082,21.182H139.077z M243.911,133.244l-33.325,51.877l-17.348-51.877H243.911z M200.363,535.191   h-15.934l34.146-78.337h36.695L200.363,535.191z M346.958,535.191l-54.24-78.337h36.744l34.145,78.337H346.958z M326.568,449.532   l-45.915-21.674l38.816-17.497l7.91,39.171H326.568z M339.756,183.072l-35.045-49.823h50.629L339.756,183.072z M372.062,104.294   l38.261,21.629h-45.027L372.062,104.294z" fill="#48bdbb"/>
</g>
<g>
</g>
<g>
</g>
<g>
</g>
<g>
</g>
<g>
</g>
<g>
</g>
<g>
</g>
<g>
</g>
<g>
</g>
<g>
</g>
<g>
</g>
<g>
</g>
<g>
</g>
<g>
</g>
<g>
</g>
</svg>
