<?xml version="1.0" encoding="iso-8859-1"?>
<svg xmlns="http://www.w3.org/2000/svg" xmlns:xlink="http://www.w3.org/1999/xlink" version="1.1" viewBox="0 0 470.017 470.017" enable-background="new 0 0 470.017 470.017" x="0" y="0" width="64px" height="64px">
  <g>
    <path d="m190.544,319.591l-123.302,123.306c-5.779,5.782-13.462,8.969-21.633,8.974-8.186,0-15.868-3.185-21.647-8.964-5.777-5.784-8.954-13.477-8.945-21.662 0.009-8.166 3.193-15.831 8.976-21.593l131.54-131.548c2.929-2.929 2.929-7.678-0.001-10.607-2.928-2.929-7.677-2.928-10.606,0l-131.53,131.54c-8.615,8.583-13.366,20.015-13.379,32.191-0.014,12.195 4.722,23.659 13.335,32.282 8.616,8.616 20.064,13.36 32.241,13.36 12.201-0.007 23.648-4.755 32.258-13.369l123.301-123.305c2.929-2.929 2.929-7.678 0-10.606-2.93-2.928-7.678-2.928-10.608,0.001z" fill="#ff6d45"/>
    <path d="m467.82,370.598l-153.536-153.537 20.32-20.321c6.959,1.755 20.819,4.939 29.798,4.946h0.084c28.181-0.001 54.675-10.977 74.605-30.91 19.942-19.946 30.925-46.465 30.925-74.675-0.009-37.996-20.627-73.23-53.807-91.953-2.322-1.311-5.165-1.29-7.468,0.055s-3.718,3.811-3.718,6.478l.009,65.992-40.59,28.082-40.578-28.099-.04-65.997c-0.002-2.666-1.418-5.131-3.722-6.474s-5.147-1.363-7.467-0.052c-33.175,18.74-53.785,53.997-53.785,92.011 0,13.382 2.668,26.639 7.938,39.482l-25.206,25.207-49.705-49.705c-2.525-2.525-6.401-2.868-9.3-1.038l-85-85.001c-0.016-0.016-0.034-0.03-0.05-0.045-22.445-22.396-63.219-29.148-89.695-22.736-2.73,0.661-4.862,2.793-5.523,5.524-6.413,26.473 0.339,67.236 22.725,89.685 0.019,0.02 0.035,0.041 0.054,0.06l85.003,85.002c-0.748,1.188-1.16,2.568-1.16,3.994 0,1.989 0.79,3.897 2.196,5.303l88.135,88.135-2.934,2.934c-1.406,1.406-2.196,3.314-2.196,5.303s0.79,3.897 2.196,5.303l174.27,174.269c1.465,1.464 3.385,2.197 5.304,2.197s3.839-0.732 5.304-2.197l86.615-86.615c2.928-2.929 2.928-7.678-0.001-10.607zm-186.806-227.985c2.228-2.228 2.825-5.611 1.496-8.468-5.746-12.345-8.66-25.131-8.66-38.001 0-28.101 13.135-54.45 34.984-71.493l.033,55.94c0.002,2.459 1.208,4.762 3.23,6.162l48.074,33.289c2.567,1.777 5.968,1.779 8.537,0.002l48.092-33.272c2.024-1.401 3.232-3.707 3.232-6.169l-.007-55.935c21.848,17.027 34.983,43.354 34.99,71.435 0,24.202-9.423,46.954-26.532,64.067-17.099,17.101-39.823,26.516-63.999,26.516h-0.072c-8.375-0.006-24.539-3.986-30.061-5.519-2.606-0.723-5.399,0.011-7.312,1.923l-23.364,23.365-10.126-10.126c-2.929-2.928-7.677-2.929-10.607,0l-2.933,2.933-27.822-27.823 28.827-28.826zm-265.044-126.644c22.165-3.538 54.321,3.05 71.002,19.73 10.731,10.731 13.642,27.183 7.243,40.938-1.747,3.756-0.119,8.217 3.637,9.964 3.755,1.747 8.216,0.119 9.963-3.637 3.221-6.923 4.765-14.328 4.745-21.68l59.277,59.277-51.274,51.274-59.273-59.271c0.046,0 0.091,0.003 0.137,0.003 7.305,0 14.66-1.553 21.538-4.753 3.756-1.747 5.384-6.208 3.637-9.963-1.747-3.756-6.206-5.385-9.963-3.637-13.755,6.397-30.209,3.488-40.938-7.242-16.683-16.683-23.27-48.837-19.731-71.003zm111.067,170.604l59.536-59.536 82.831,82.832-59.535,59.535-82.832-82.831zm248.864,265.337l-163.663-163.662 2.925-2.925c0.019-0.019 70.151-70.151 70.151-70.151l2.934-2.934 163.662,163.663-76.009,76.009z" fill="#ff6d45"/>
  </g>
</svg>
